version = 1
nColumns = 19
nRows = 25
inDegrees = yes
endheader 
time	r_ground_force_vx	r_ground_force_vy	r_ground_force_vz	r_ground_force_px	r_ground_force_py	r_ground_force_pz	l_ground_force_vx	l_ground_force_vy	l_ground_force_vz	l_ground_force_px	l_ground_force_py	l_ground_force_pz	r_ground_torque_x	r_ground_torque_y	r_ground_torque_z	l_ground_torque_x	l_ground_torque_y	l_ground_torque_z	
          0.00000000	       -436.56790228	        417.98259649	         52.54594643	          0.19544248	          0.00000000	          0.05036729	          0.00000000	          0.00000000	          0.00000000	          0.00000000	          0.00000000	          0.00000000	          0.00000000	         -0.69060139	          0.00000000	          0.00000000	          0.00000000	          0.00000000	
          0.00087188	       -436.56790228	        417.98259649	         52.54594643	          0.19544248	          0.00000000	          0.05036729	          0.00000000	          0.00000000	          0.00000000	          0.00000000	          0.00000000	          0.00000000	          0.00000000	         -0.69060139	          0.00000000	          0.00000000	          0.00000000	          0.00000000	
          0.00362667	       -314.62446322	        537.45073532	         36.77918530	          0.18103203	          0.00000000	          0.05006175	          0.00000000	          0.00000000	          0.00000000	          0.00000000	          0.00000000	          0.00000000	          0.00000000	         -3.39641787	          0.00000000	          0.00000000	          0.00000000	          0.00000000	
          0.00562318	       -134.81872672	        603.79086240	         22.38185692	          0.16722024	          0.00000000	          0.05047658	          0.00000000	          0.00000000	          0.00000000	          0.00000000	          0.00000000	          0.00000000	          0.00000000	         -5.69920064	          0.00000000	          0.00000000	          0.00000000	          0.00000000	
          0.00649506	       -136.94729136	        647.80364000	         17.57777406	          0.16242036	          0.00000000	          0.05062507	          0.00000000	          0.00000000	          0.00000000	          0.00000000	          0.00000000	          0.00000000	          0.00000000	         -6.71961932	          0.00000000	          0.00000000	          0.00000000	          0.00000000	
          0.00924985	       -130.99120300	        832.18641998	          1.99097272	          0.15450059	          0.00000000	          0.05067754	          0.00000000	          0.00000000	          0.00000000	          0.00000000	          0.00000000	          0.00000000	          0.00000000	         -7.66331137	          0.00000000	          0.00000000	          0.00000000	          0.00000000	
          0.01124637	       -135.60316325	        971.03685432	         -1.05853930	          0.15071514	          0.00000000	          0.05066828	          0.00000000	          0.00000000	          0.00000000	          0.00000000	          0.00000000	          0.00000000	          0.00000000	         -6.78017414	          0.00000000	          0.00000000	          0.00000000	          0.00000000	
          0.01211825	       -138.21824854	       1024.11163279	         -0.91040613	          0.14884863	          0.00000000	          0.05069746	          0.00000000	          0.00000000	          0.00000000	          0.00000000	          0.00000000	          0.00000000	          0.00000000	         -6.35850621	          0.00000000	          0.00000000	          0.00000000	          0.00000000	
          0.01487303	       -131.62935854	       1173.47317820	         -2.87773025	          0.14427330	          0.00000000	          0.05074414	          0.00000000	          0.00000000	          0.00000000	          0.00000000	          0.00000000	          0.00000000	          0.00000000	         -5.66812492	          0.00000000	          0.00000000	          0.00000000	          0.00000000	
          0.01686955	       -123.36809192	       1262.62928394	         -5.08251856	          0.14216021	          0.00000000	          0.05073160	          0.00000000	          0.00000000	          0.00000000	          0.00000000	          0.00000000	          0.00000000	          0.00000000	         -5.59757709	          0.00000000	          0.00000000	          0.00000000	          0.00000000	
          0.01774143	       -120.22975882	       1296.79696930	         -5.98105511	          0.14156863	          0.00000000	          0.05071241	          0.00000000	          0.00000000	          0.00000000	          0.00000000	          0.00000000	          0.00000000	          0.00000000	         -5.63106107	          0.00000000	          0.00000000	          0.00000000	          0.00000000	
          0.02049622	       -112.19495809	       1388.46353391	         -9.67371036	          0.14115436	          0.00000000	          0.05057434	          0.00000000	          0.00000000	          0.00000000	          0.00000000	          0.00000000	          0.00000000	          0.00000000	         -6.09399053	          0.00000000	          0.00000000	          0.00000000	          0.00000000	
          0.02249273	       -110.17209527	       1439.22106004	        -12.05431706	          0.14191580	          0.00000000	          0.05042573	          0.00000000	          0.00000000	          0.00000000	          0.00000000	          0.00000000	          0.00000000	          0.00000000	         -6.61852278	          0.00000000	          0.00000000	          0.00000000	          0.00000000	
          0.02336461	       -109.66525279	       1457.79375780	        -12.93315976	          0.14248039	          0.00000000	          0.05035223	          0.00000000	          0.00000000	          0.00000000	          0.00000000	          0.00000000	          0.00000000	          0.00000000	         -6.87088205	          0.00000000	          0.00000000	          0.00000000	          0.00000000	
          0.02611940	       -110.13290633	       1508.45344648	        -15.32728151	          0.14530141	          0.00000000	          0.05007049	          0.00000000	          0.00000000	          0.00000000	          0.00000000	          0.00000000	          0.00000000	          0.00000000	         -7.68882116	          0.00000000	          0.00000000	          0.00000000	          0.00000000	
          0.02811592	       -113.11469603	       1537.78222771	        -16.42328121	          0.14804218	          0.00000000	          0.04984038	          0.00000000	          0.00000000	          0.00000000	          0.00000000	          0.00000000	          0.00000000	          0.00000000	         -8.25860021	          0.00000000	          0.00000000	          0.00000000	          0.00000000	
          0.02898780	       -115.10916398	       1548.59787656	        -16.69043376	          0.14934723	          0.00000000	          0.04973902	          0.00000000	          0.00000000	          0.00000000	          0.00000000	          0.00000000	          0.00000000	          0.00000000	         -8.49115564	          0.00000000	          0.00000000	          0.00000000	          0.00000000	
          0.03174258	       -121.64143822	       1573.81477119	        -17.19359104	          0.15361094	          0.00000000	          0.04943811	          0.00000000	          0.00000000	          0.00000000	          0.00000000	          0.00000000	          0.00000000	          0.00000000	         -9.23256489	          0.00000000	          0.00000000	          0.00000000	          0.00000000	
          0.03373910	       -125.89685449	       1585.56358330	        -17.49010873	          0.15675080	          0.00000000	          0.04924576	          0.00000000	          0.00000000	          0.00000000	          0.00000000	          0.00000000	          0.00000000	          0.00000000	         -9.77665021	          0.00000000	          0.00000000	          0.00000000	          0.00000000	
          0.03461098	       -127.46110907	       1589.48223771	        -17.65782181	          0.15811531	          0.00000000	          0.04917032	          0.00000000	          0.00000000	          0.00000000	          0.00000000	          0.00000000	          0.00000000	          0.00000000	        -10.01295282	          0.00000000	          0.00000000	          0.00000000	          0.00000000	
          0.03736577	       -130.78032796	       1598.07246479	        -18.32441519	          0.16235716	          0.00000000	          0.04897027	          0.00000000	          0.00000000	          0.00000000	          0.00000000	          0.00000000	          0.00000000	          0.00000000	        -10.72453054	          0.00000000	          0.00000000	          0.00000000	          0.00000000	
          0.03936229	       -131.72157546	       1601.75925357	        -18.98841293	          0.16535007	          0.00000000	          0.04886270	          0.00000000	          0.00000000	          0.00000000	          0.00000000	          0.00000000	          0.00000000	          0.00000000	        -11.20177692	          0.00000000	          0.00000000	          0.00000000	          0.00000000	
          0.04023417	       -131.79541487	       1602.93705178	        -19.33007523	          0.16663227	          0.00000000	          0.04882565	          0.00000000	          0.00000000	          0.00000000	          0.00000000	          0.00000000	          0.00000000	          0.00000000	        -11.39751961	          0.00000000	          0.00000000	          0.00000000	          0.00000000	
          0.04298895	       -130.54067831	       1604.74875681	        -20.48501986	          0.17057295	          0.00000000	          0.04874881	          0.00000000	          0.00000000	          0.00000000	          0.00000000	          0.00000000	          0.00000000	          0.00000000	        -11.95730077	          0.00000000	          0.00000000	          0.00000000	          0.00000000	
          0.04498547	       -128.39500582	       1604.66979430	        -21.42664921	          0.17332843	          0.00000000	          0.04872989	          0.00000000	          0.00000000	          0.00000000	          0.00000000	          0.00000000	          0.00000000	          0.00000000	        -12.31114177	          0.00000000	          0.00000000	          0.00000000	          0.00000000	
